Coordinates
version=1
nRows=6
nColumns=46
inDegrees=yes

Units are S.I. units (second, meters, Newtons, ...)
Angles are in degrees.

endheader
time	pelvis_tilt	pelvis_list	pelvis_rotation	pelvis_tx	pelvis_ty	pelvis_tz	bb_angle	bb_tx	bb_ty	bb_tz	hip_flexion_r	hip_adduction_r	hip_rotation_r	knee_angle_r	knee_angle_r_beta	ankle_angle_r	subtalar_angle_r	mtp_angle_r	crank_angle_r	hip_flexion_l	hip_adduction_l	hip_rotation_l	knee_angle_l	knee_angle_l_beta	ankle_angle_l	subtalar_angle_l	mtp_angle_l	crank_angle_l	lumbar_extension	lumbar_bending	lumbar_rotation	arm_flex_r	arm_add_r	arm_rot_r	elbow_flex_r	pro_sup_r	wrist_flex_r	wrist_dev_r	arm_flex_l	arm_add_l	arm_rot_l	elbow_flex_l	pro_sup_l	wrist_flex_l	wrist_dev_l
      0.00500000	    -20.11186338	     -1.59512532	     -0.22681363	      0.05044097	      1.09399392	     -0.25954401	      0.00000000	      0.50000000	      0.00000000	      0.25000000	     79.37627576	     -4.27211761	     -2.32213441	     72.86787134	      1.27178427	      8.91997737	     -6.81084072	      0.00000000	      0.00000000	     60.10845416	     -9.76400252	      0.17883959	     80.37787140	      1.40285850	     11.38473572	     -2.26883376	      0.00000000	      0.00000000	    -46.73936309	      1.38301108	      4.53262148	     89.70973623	     -8.33798910	     34.77846908	     28.87680169	     23.25157686	      0.00000000	      0.00000000	     89.74171775	     -3.98067163	     14.51475407	     51.31355628	     25.29429144	      0.00000000	      0.00000000
      0.01000000	    -20.06214181	     -1.57207142	     -0.22160321	      0.05044505	      1.09410585	     -0.25955023	      0.00000000	      0.50000000	      0.00000000	      0.25000000	     79.33573231	     -4.29188060	     -2.30473036	     72.88715259	      1.27212080	      8.92979516	     -6.78131140	      0.00000000	      0.00000000	     60.03745168	     -9.74577673	      0.15908452	     80.35017880	      1.40237517	     11.38704940	     -2.25915776	      0.00000000	      0.00000000	    -46.80411412	      1.36639476	      4.43387632	     89.71505867	     -8.44235391	     35.75199385	     29.04841501	     22.24104661	      0.00000000	      0.00000000	     89.73957253	     -4.16832568	     14.68386929	     51.56431690	     24.71918645	      0.00000000	      0.00000000
      0.01500000	    -20.06230552	     -1.56454489	     -0.21090129	      0.05041841	      1.09411634	     -0.25952169	      0.00000000	      0.50000000	      0.00000000	      0.25000000	     79.34235764	     -4.30463543	     -2.30695975	     72.89723576	      1.27229678	      8.91936967	     -6.81451601	      0.00000000	      0.00000000	     60.03261007	     -9.73564339	      0.15195921	     80.33084272	      1.40203770	     11.35313115	     -2.27718640	      0.00000000	      0.00000000	    -46.80652282	      1.34640349	      4.38651011	     89.71527847	     -8.34193957	     35.37232880	     28.80078242	     23.36992465	      0.00000000	      0.00000000	     89.73903597	     -4.12787752	     14.51812409	     51.41300463	     25.77787497	      0.00000000	      0.00000000
      0.02000000	    -19.89702832	     -1.68894822	     -0.12202312	      0.05045846	      1.09460111	     -0.25966290	      0.00000000	      0.50000000	      0.00000000	      0.25000000	     79.10466856	     -4.36411809	     -2.46513997	     72.87144897	      1.27184672	      8.97474555	     -6.78817204	      0.00000000	      0.00000000	     59.85042762	     -9.71289687	      0.31331467	     80.28513168	      1.40123989	     11.38815719	     -2.27435960	      0.00000000	      0.00000000	    -47.08384899	      1.52216750	      4.54263369	     89.70746403	     -8.34617050	     33.95898984	     29.21042591	     24.85889352	      0.00000000	      0.00000000	     89.74564126	     -4.01853363	     14.09404646	     51.82683966	     27.22013128	      0.00000000	      0.00000000
      0.02500000	    -20.05812407	     -1.58805750	     -0.17182428	      0.05034211	      1.09439529	     -0.25953319	      0.00000000	      0.50000000	      0.00000000	      0.25000000	     79.33655909	     -4.34880928	     -2.32736468	     72.93112332	      1.27288823	      8.98468847	     -6.71386548	      0.00000000	      0.00000000	     60.00119263	     -9.68726695	      0.20642555	     80.26955501	      1.40096802	     11.32937292	     -2.32629670	      0.00000000	      0.00000000	    -46.83616496	      1.38412929	      4.37888307	     89.71653803	     -8.55703644	     35.95003141	     28.71968456	     24.65924047	      0.00000000	      0.00000000	     89.74082251	     -4.27244591	     14.65306693	     51.03463854	     26.94256312	      0.00000000	      0.00000000
      0.03000000	    -20.02587818	     -1.63807194	     -0.16948264	      0.05030908	      1.09446637	     -0.25948862	      0.00000000	      0.50000000	      0.00000000	      0.25000000	     79.29866416	     -4.33014520	     -2.36727943	     72.94307514	      1.27309683	      9.00031005	     -6.70247788	      0.00000000	      0.00000000	     59.97259688	     -9.71539918	      0.27145890	     80.25250605	      1.40067046	     11.32473701	     -2.28595153	      0.00000000	      0.00000000	    -46.88562122	      1.40935339	      4.50927401	     89.71117925	     -8.50154147	     34.76895154	     28.63679073	     25.96683378	      0.00000000	      0.00000000	     89.74522482	     -4.11309331	     14.27308176	     51.39536885	     28.29204619	      0.00000000	      0.00000000
